<svg xmlns="http://www.w3.org/2000/svg" viewBox="0 0 240 240"><g id="Layer_2" data-name="Layer 2"><g id="Layer_1-2" data-name="Layer 1"><rect width="240" height="240" style="fill:#ec753b"/><path d="M80.58,166H37.44a5.28,5.28,0,0,1-3.58-1,5.27,5.27,0,0,1-1-3.59V78.45a4.76,4.76,0,0,1,1-3.46,4.86,4.86,0,0,1,3.58-1.15H80.58q16,0,23.68,6.4t7.8,19.71v39.94q0,13.31-7.8,19.71T80.58,166Zm-33.8-11.52h31a36.54,36.54,0,0,0,10.62-1.28,15.42,15.42,0,0,0,6.28-3.71A10.94,10.94,0,0,0,97.47,144a29.61,29.61,0,0,0,.77-6.91V103.15a29.67,29.67,0,0,0-.77-6.91,11.88,11.88,0,0,0-2.94-5.63,14.59,14.59,0,0,0-6.27-3.84,32.14,32.14,0,0,0-10.5-1.41h-31Zm31-67.84a30.65,30.65,0,0,1,9.73,1.28,14,14,0,0,1,5.89,3.46,11.65,11.65,0,0,1,2.81,5.24,27,27,0,0,1,.77,6.53v33.92a26.93,26.93,0,0,1-.77,6.53,10.54,10.54,0,0,1-2.69,5.12,14.67,14.67,0,0,1-5.88,3.33,34.21,34.21,0,0,1-9.86,1.15H48.06V86.64ZM61.89,98.29v43.52H77.12a5.79,5.79,0,0,0,4.48-1.54,6.45,6.45,0,0,0,1.54-4.73V104.43c0-2.13-.52-3.67-1.54-4.61a5.82,5.82,0,0,0-4.48-1.53Zm83.34-11.91a7.73,7.73,0,0,0-1-.89,1.55,1.55,0,0,0-.89-.26,1.7,1.7,0,0,0-1,.39,1.34,1.34,0,0,0-.51,1.15v67.71h1.28V86.77a.36.36,0,0,1,.26-.13.34.34,0,0,1,.25.13A1.46,1.46,0,0,1,144,87l48.38,54.28v13.18h1.28V85.36h-1.28v54ZM152.14,166h-19.2a3.84,3.84,0,0,1-4.61-4.61V78.45a4.76,4.76,0,0,1,1-3.46,4.86,4.86,0,0,1,3.58-1.15h13.31a9.05,9.05,0,0,1,7.55,3.46l24.84,28.41V78.45a4.8,4.8,0,0,1,1-3.46,4.87,4.87,0,0,1,3.58-1.15h19.2a4.07,4.07,0,0,1,4.61,4.61v82.94A4.9,4.9,0,0,1,205.9,165a4.79,4.79,0,0,1-3.46,1h-19.2a3.83,3.83,0,0,1-4.6-4.61V145.65l-21.89-26.5v42.24A4.94,4.94,0,0,1,155.6,165,4.82,4.82,0,0,1,152.14,166Z" style="fill:#3c3c3c"/></g></g></svg>